<?xml version="1.0" encoding="UTF-8" standalone="no"?>
<svg
   xmlns:dc="http://purl.org/dc/elements/1.1/"
   xmlns:cc="http://creativecommons.org/ns#"
   xmlns:rdf="http://www.w3.org/1999/02/22-rdf-syntax-ns#"
   xmlns:svg="http://www.w3.org/2000/svg"
   xmlns="http://www.w3.org/2000/svg"
   xmlns:sodipodi="http://sodipodi.sourceforge.net/DTD/sodipodi-0.dtd"
   xmlns:inkscape="http://www.inkscape.org/namespaces/inkscape"
   width="842"
   height="1043"
   version="1.1"
   id="svg18"
   sodipodi:docname="icon.svg"
   inkscape:version="0.92.4 (5da689c313, 2019-01-14)"
   inkscape:export-filename="D:\Projects\vscode-flutter-orm-m8\docs\media\icon.png"
   inkscape:export-xdpi="96"
   inkscape:export-ydpi="96">
  <rect
     style="opacity:1;fill:#ffffff;fill-opacity:1;stroke:none;stroke-width:3.7331934;stroke-miterlimit:4;stroke-dasharray:none;stroke-dashoffset:0"
     id="rect958"
     width="842"
     height="1043"
     x="0"
     y="0" />
  <path
     style="opacity:0.75700001;fill:#32b9f6;fill-opacity:1;stroke:none;stroke-width:6.60902309;stroke-miterlimit:4;stroke-dasharray:none;stroke-dashoffset:0"
     d="m 397.9113,771.59384 -40.3966,-40.1165 24.2183,-24.4887 c 13.32,-13.4688 75.4006,-76.0131 137.9569,-138.9872 l 113.7385,-114.4984 82.7385,0.038 82.7385,0.038 -179.3915,179.1016 c -98.6653,98.5059 -179.7998,179.0856 -180.2988,179.0659 -0.499,-0.02 -19.0858,-18.0881 -41.3038,-40.1521 z"
     id="path883-8-1"
     inkscape:connector-curvature="0" />
  <g
     id="g16-7-0"
     transform="matrix(3.6835318,0,0,3.6835318,524.96637,29.769277)">
    <title
       id="title4-2-8">Layer 1</title>
    <path
       id="svg_1-4-7"
       d="m 17.140806,26.799516 c 0,-13.502845 12.08283,-24.440146 26.999912,-24.440146 14.917072,0 26.999912,10.937301 26.999912,24.440146 0,6.751417 -0.111238,23.883474 -5.811236,23.513469 -5.699998,-0.370005 -13.264619,0.926665 -20.723166,0.926665 -7.458547,0 -17.932631,2.057865 -22.817978,-2.364315 -4.885347,-4.422179 -4.647444,-15.324403 -4.647444,-22.07582 z"
       stroke-linecap="null"
       stroke-linejoin="null"
       inkscape:connector-curvature="0"
       style="fill:#7f7f7f;stroke:#000000;stroke-width:0;stroke-dasharray:none" />
    <path
       transform="rotate(3.7459207,40.91433,78.963142)"
       id="svg_4-0-8"
       d="m 8.754717,73.482669 c 0,-15.315465 3.598368,-29.175968 9.417955,-39.207604 5.819587,-10.031636 15.531209,-0.06383 24.416067,-0.06383 8.884868,0 15.254849,-9.9678 21.074426,0.06384 5.819587,10.031625 14.118754,40.41699 6.076323,58.612297 -8.04243,18.195308 -13.330941,18.006918 -28.680019,19.420058 -15.349078,1.41313 -18.840543,10.2718 -19.841706,11.71238 -1.001163,1.44058 -3.47693,7.08478 -6.386724,2.06897 -1.454902,-2.50791 -1.940691,-5.43213 -1.966216,-8.22619 -0.02551,-2.79405 0.409253,-5.45795 0.795477,-7.44525 0.772456,-3.97458 2.829723,-12.560042 4.949377,-15.675735 1.059827,-1.557841 6.583113,-7.467122 11.028898,-14.703495 4.445776,-7.236384 4.245614,-12.583787 4.167326,-13.017861 -0.156567,-0.868148 -1.702222,7.421563 -5.955589,13.983302 -4.253357,6.56174 -9.418014,11.537207 -10.498168,13.675336 C 16.27199,96.817016 13.113332,107.23149 12.623196,111.10744 12.13305,114.98339 9.030462,81.017461 8.920698,79.153153 8.810934,77.288812 8.754715,75.397114 8.754715,73.48267 Z"
       stroke-linecap="null"
       stroke-linejoin="null"
       inkscape:connector-curvature="0"
       style="fill:#7f7f7f;stroke:#000000;stroke-width:0;stroke-dasharray:none" />
    <path
       id="svg_8-4-7"
       d="m 23.8379,30.40088 c 0,-5.86706 2.34961,-11.17675 6.1496,-15.01968 3.79999,-3.84293 9.25058,2.89119 15.05209,2.89119 5.80151,0 10.85165,-6.73412 14.65164,-2.89119 3.79999,3.84293 6.1496,9.15262 6.1496,15.01968 0,11.73413 -9.39845,21.23877 -21.00147,21.23877 -11.60302,0 -21.00146,-9.50464 -21.00146,-21.23877 z"
       stroke-linecap="null"
       stroke-linejoin="null"
       inkscape:connector-curvature="0"
       style="fill:#ffffff;stroke:#000000;stroke-width:0;stroke-dasharray:none" />
    <circle
       id="svg_10-6-9"
       cy="36.729008"
       cx="32.024906"
       stroke-linecap="null"
       stroke-linejoin="null"
       r="3.440918"
       style="fill:#ffffff;stroke:#000000;stroke-width:2;stroke-dasharray:none" />
    <path
       id="svg_14-8-7"
       d="m 41.734935,42.771522 c 0,-3.958562 1.486753,-3.537714 3.322262,-3.537714 1.835509,0 3.32227,-0.420848 3.32227,3.537714 0,1.979277 -0.990453,2.681782 -1.706304,4.000599 -0.715843,1.318816 -1.092404,3.173479 -1.615966,3.164383 -0.523561,-0.0091 -0.502468,-0.952739 -1.103597,-2.249167 -0.601129,-1.296428 -2.218666,-2.936538 -2.218665,-4.915815 z"
       stroke-linecap="null"
       stroke-linejoin="null"
       inkscape:connector-curvature="0"
       style="fill:#7f7f7f;stroke:#000000;stroke-width:0;stroke-dasharray:none" />
    <path
       transform="rotate(-133.23581,64.900833,6.5684066)"
       id="svg_17-8-8"
       d="m 61.42631,2.912474 c 0,-5.24431 -0.87079,-3.04294 1.48915,-3.04294 2.35994,0 5.61689,-2.86535 5.61689,2.37896 0,2.62215 -0.6638,4.95054 -1.58418,6.69771 -0.92037,1.74717 -3.35956,5.11433 -4.03271,5.10228 -0.67315,-0.01205 1.34272,-3.37734 0.56984,-5.09485 -0.77288,-1.71751 -2.05899,-3.41901 -2.05899,-6.04116 z"
       stroke-linecap="null"
       stroke-linejoin="null"
       inkscape:connector-curvature="0"
       style="fill:#7f7f7f;stroke:#000000;stroke-width:0;stroke-dasharray:none" />
    <path
       id="svg_19-6-8"
       transform="rotate(132.64931,22.451118,7.6155782)"
       d="m 26.047692,3.959647 c 0,-5.24431 0.90138,-3.04294 -1.541462,-3.04294 -2.442842,0 -5.814205,-2.86535 -5.814205,2.37896 0,2.62215 0.687119,4.95054 1.639831,6.69771 0.952702,1.74717 3.477578,5.11433 4.174375,5.10228 0.696797,-0.01205 -1.389888,-3.37734 -0.589858,-5.09485 0.80003,-1.71751 2.13132,-3.41901 2.13132,-6.04116 z"
       stroke-linecap="null"
       stroke-linejoin="null"
       inkscape:connector-curvature="0"
       style="fill:#7f7f7f;stroke:#000000;stroke-width:0;stroke-dasharray:none" />
    <circle
       id="svg_23-4-7"
       cy="36.254398"
       cx="56.941898"
       stroke-linecap="null"
       stroke-linejoin="null"
       r="3.440918"
       style="fill:#ffffff;stroke:#000000;stroke-width:2;stroke-dasharray:none" />
    <path
       id="svg_31-7-9"
       d="m 48.098106,120.19826 c 0.50239,2.6176 1.39555,-3.19928 -1e-5,-5.31829 -1.39556,-2.11901 -2.34455,-2.2852 -3.88934,-2.17431 -1.54477,0.11088 -1.80458,-0.0278 -2.67949,0.83098 -0.8749,0.85878 -0.01825,-3.55947 -2.58608,-2.81159 -2.56783,0.74789 -1.78632,0.99718 -1.82389,0.98342 -0.03757,-0.0137 0.64919,1.83369 0.89317,2.32676 0.24398,0.49306 -1.24047,1.38658 -1.78045,2.6193 -0.53997,1.23271 1.71845,5.52572 1.78045,4.85954 0.062,-0.66618 -0.26186,-2.04752 0.43824,-3.27881 0.7001,-1.2313 0.44138,-0.62699 2.01795,-1.66553 1.57658,-1.03855 1.60061,0.42925 2.90277,3.78097 1.30217,3.35173 1.32149,-2.52074 1.11646,-4.15491 -0.20504,-1.63418 3.10782,1.38487 3.61022,4.00247 z"
       stroke-linecap="null"
       stroke-linejoin="null"
       inkscape:connector-curvature="0"
       style="fill:#7f7f7f;stroke:#000000;stroke-width:0;stroke-dasharray:none" />
    <path
       id="svg_32-5-8"
       d="m 60.643506,119.46619 c 0.50239,2.6176 1.39555,-3.19928 -1e-5,-5.31829 -1.39556,-2.11901 -2.34455,-2.2852 -3.88934,-2.17431 -1.54477,0.11088 -1.80458,-0.0278 -2.67949,0.83098 -0.8749,0.85878 -0.01825,-3.55947 -2.58608,-2.81159 -2.56783,0.74789 -1.78632,0.99718 -1.82389,0.98342 -0.03757,-0.0137 0.64919,1.83369 0.89317,2.32676 0.24398,0.49306 -1.24047,1.38658 -1.78045,2.6193 -0.53997,1.23271 1.71845,5.52572 1.78045,4.85954 0.062,-0.66618 -0.26186,-2.04752 0.43824,-3.27881 0.7001,-1.2313 0.44138,-0.62699 2.01795,-1.66553 1.57658,-1.03855 1.60061,0.42925 2.90277,3.78097 1.30217,3.35173 1.32149,-2.52074 1.11646,-4.15491 -0.20504,-1.63418 3.10782,1.38487 3.61022,4.00247 z"
       stroke-linecap="null"
       stroke-linejoin="null"
       inkscape:connector-curvature="0"
       style="fill:#7f7f7f;stroke:#000000;stroke-width:0;stroke-dasharray:none" />
  </g>
  <path
     style="opacity:0.77600002;fill:#5bc8f8;stroke:#000000;stroke-width:1px;stroke-linecap:butt;stroke-linejoin:miter;stroke-opacity:1;fill-opacity:1"
     d="M 575.8812,1043 -6.3680881,485.72826 0,1043 Z"
     id="path1404-4"
     inkscape:connector-curvature="0"
     sodipodi:nodetypes="cccc" />
  <text
     xml:space="preserve"
     style="font-style:normal;font-variant:normal;font-weight:normal;font-stretch:normal;font-size:169.27693176px;line-height:1.25;font-family:'Segoe UI';-inkscape-font-specification:'Segoe UI';font-variant-ligatures:normal;font-variant-caps:normal;font-variant-numeric:normal;font-feature-settings:normal;text-align:start;letter-spacing:0px;word-spacing:0px;writing-mode:lr-tb;text-anchor:start;fill:#ffffff;fill-opacity:1;stroke:none;stroke-width:4.23192358;"
     x="518.15625"
     y="538.67084"
     id="text1134-3-3"
     transform="rotate(42.552489)"><tspan
       sodipodi:role="line"
       id="tspan1132-2-0"
       x="518.15625"
       y="538.67084"
       style="stroke-width:4.23192358;fill:#ffffff;fill-opacity:1;-inkscape-font-specification:'Segoe UI Bold';font-family:'Segoe UI';font-weight:bold;font-style:normal;font-stretch:normal;font-variant:normal;">ORM</tspan></text>
  <metadata
     id="metadata24">
    <rdf:RDF>
      <cc:Work
         rdf:about="">
        <dc:format>image/svg+xml</dc:format>
        <dc:type
           rdf:resource="http://purl.org/dc/dcmitype/StillImage" />
        <dc:title>msm-owl</dc:title>
      </cc:Work>
    </rdf:RDF>
  </metadata>
  <defs
     id="defs22">
    <inkscape:perspective
       sodipodi:type="inkscape:persp3d"
       inkscape:vp_x="7618.0026 : 200.13565 : 1"
       inkscape:vp_y="0 : 1000 : 0"
       inkscape:vp_z="8914.6779 : 537.04107 : 1"
       inkscape:persp3d-origin="7977.3389 : 20.42808 : 1"
       id="perspective1105" />
  </defs>
  <sodipodi:namedview
     pagecolor="#ffffff"
     bordercolor="#666666"
     borderopacity="1"
     objecttolerance="10"
     gridtolerance="10"
     guidetolerance="10"
     inkscape:pageopacity="0"
     inkscape:pageshadow="2"
     inkscape:window-width="1920"
     inkscape:window-height="1017"
     id="namedview20"
     showgrid="false"
     inkscape:zoom="0.16"
     inkscape:cx="1310.1121"
     inkscape:cy="603.03353"
     inkscape:window-x="1912"
     inkscape:window-y="-8"
     inkscape:window-maximized="1"
     inkscape:current-layer="svg18" />
  <!-- Created with SVG-edit - http://svg-edit.googlecode.com/ -->
  <title
     id="title2">msm-owl</title>
  <text
     xml:space="preserve"
     style="font-style:normal;font-variant:normal;font-weight:normal;font-stretch:normal;font-size:335.0352478px;line-height:1.25;font-family:sans-serif;-inkscape-font-specification:'sans-serif, Normal';font-variant-ligatures:normal;font-variant-caps:normal;font-variant-numeric:normal;font-feature-settings:normal;text-align:start;letter-spacing:0px;word-spacing:0px;writing-mode:lr-tb;text-anchor:start;fill:#000000;fill-opacity:1;stroke:none;stroke-width:8.3758812"
     x="-4.9913688"
     y="660.14471"
     id="text840-50"
     transform="rotate(-45.13341)"
     inkscape:transform-center-x="100.91807"
     inkscape:transform-center-y="-87.995232"><tspan
       sodipodi:role="line"
       id="tspan838-4"
       x="-4.9913688"
       y="660.14471"
       style="font-style:normal;font-variant:normal;font-weight:normal;font-stretch:normal;font-family:'Segoe UI';-inkscape-font-specification:'Segoe UI';fill:#000000;stroke-width:8.3758812">m</tspan></text>
  <path
     style="opacity:1;fill:#5bc8f8;fill-opacity:1;stroke:none;stroke-width:6.60902309;stroke-miterlimit:4;stroke-dasharray:none;stroke-dashoffset:0"
     d="m 621.0472,826.90324 c -17.03,-15.9778 -36.2611,-35.0043 -42.646,-41.3477 l -11.3223,-11.2488 34.7148,-33.2528 31.2903,-31.3063 43.0962,0.3489 c 33.2505,0.2693 67.0243,0.2673 106.1132,0.1026 l 12.9682,-0.055 -36.4893,38.4456 c -19.9635,20.4068 -51.4847,52.5254 -70.047,71.3746 l -35.1692,37.4388 z"
     id="path891-2-8"
     inkscape:connector-curvature="0"
     sodipodi:nodetypes="sscccssccscs" />
  <path
     style="opacity:1;fill:#055a9d;fill-opacity:1;stroke:none;stroke-width:6.60902309;stroke-miterlimit:4;stroke-dasharray:none;stroke-dashoffset:0"
     d="m 602.6569,976.1308 -33.7831,-33.99216 41.6528,-43.8838 43.0295,-40.8514 74.783,75.2034 73.0966,74.54676 -25.6142,0.7199 c -14.0878,0.3961 -51.445,0.7874 -83.016,0.8696 l -57.4018,0.1497 z"
     id="path889-0-9"
     inkscape:connector-curvature="0"
     sodipodi:nodetypes="cccccccccc" />
  <path
     style="opacity:1;fill:#32b9f6;fill-opacity:1;stroke:none;stroke-width:6.60902309;stroke-miterlimit:4;stroke-dasharray:none;stroke-dashoffset:0"
     d="m 568.8738,942.13864 c -75.057,-74.7079 0,0 -67.3168,-67.06 l -15.5782,-15.4906 16.8543,-18.8802 c 10.5426,-11.1266 29.3108,-30.6186 41.7071,-43.3156 l 22.5387,-23.0855 16.1982,15.4933 c 8.9089,8.5213 28.3663,27.2181 43.2386,41.5484 l 27.0404,26.055 -40.3744,40.4527 c -22.206,22.2489 -42.6113,42.5519 -44.3079,44.2825 z"
     id="path893-5-9"
     inkscape:connector-curvature="0"
     sodipodi:nodetypes="ccccscsscscc" />
  <text
     xml:space="preserve"
     style="font-style:normal;font-variant:normal;font-weight:normal;font-stretch:normal;font-size:335.0352478px;line-height:1.25;font-family:sans-serif;-inkscape-font-specification:'sans-serif, Normal';font-variant-ligatures:normal;font-variant-caps:normal;font-variant-numeric:normal;font-feature-settings:normal;text-align:start;letter-spacing:0px;word-spacing:0px;writing-mode:lr-tb;text-anchor:start;fill:#666666;fill-opacity:1;stroke:none;stroke-width:8.3758812"
     x="-418.52411"
     y="247.86034"
     id="text840-5-0"
     transform="matrix(-0.70545841,-0.70875132,-0.70875132,0.70545841,0,0)"
     inkscape:transform-center-x="-100.9181"
     inkscape:transform-center-y="-87.99528"><tspan
       sodipodi:role="line"
       id="tspan838-9-8"
       x="-418.52411"
       y="247.86034"
       style="font-style:normal;font-variant:normal;font-weight:normal;font-stretch:normal;font-family:'Segoe UI';-inkscape-font-specification:'Segoe UI';fill:#666666;stroke-width:8.3758812">m</tspan></text>
  <text
     xml:space="preserve"
     style="font-style:normal;font-variant:normal;font-weight:normal;font-stretch:normal;font-size:466.39126587px;line-height:1.25;font-family:sans-serif;-inkscape-font-specification:'sans-serif, Normal';font-variant-ligatures:normal;font-variant-caps:normal;font-variant-numeric:normal;font-feature-settings:normal;text-align:start;letter-spacing:0px;word-spacing:0px;writing-mode:lr-tb;text-anchor:start;fill:#ff0000;fill-opacity:1;stroke:none;stroke-width:10.93104458"
     x="169.75258"
     y="515.44464"
     id="text836-4"><tspan
       sodipodi:role="line"
       id="tspan834-15"
       x="169.75258"
       y="515.44464"
       style="font-style:normal;font-variant:normal;font-weight:normal;font-stretch:normal;font-family:'Segoe UI';-inkscape-font-specification:'Segoe UI';stroke-width:10.93104458">8</tspan></text>
</svg>
